<svg width="296" height="101" viewBox="0 0 296 101" fill="none" xmlns="http://www.w3.org/2000/svg">
<path d="M83.8298 82.3947C85.4826 82.3947 86.851 82.9438 87.9483 84.0286C89.0728 85.1134 89.6147 86.466 89.6147 88.0731C89.6147 89.6802 89.0728 91.0061 87.9483 92.1177C86.851 93.2025 85.4826 93.7515 83.8298 93.7515H80.2667V99.671H77.3945V82.4081H83.8298V82.3947ZM83.8298 91.0731C85.5233 91.0731 86.7426 89.8142 86.7426 88.0597C86.7426 86.3053 85.5233 85.0464 83.8298 85.0464H80.2667V91.0597H83.8298V91.0731Z" fill="#103559"/>
<path d="M93.9375 94.7287C94.3528 96.4585 95.9713 97.4099 98.1627 97.4099C99.6666 97.4099 100.798 96.928 101.572 96.0013L103.92 97.1875C102.631 98.8432 100.698 99.671 98.1484 99.671C96.0143 99.671 94.2669 99.1027 92.9492 97.9906C91.6315 96.8539 90.9727 95.4206 90.9727 93.6908C90.9727 91.9609 91.6315 90.5771 92.9206 89.4403C94.2096 88.2789 95.8997 87.7105 97.9335 87.7105C99.8528 87.7105 101.443 88.3036 102.674 89.465C103.92 90.6265 104.551 92.0598 104.551 93.7155C104.551 93.9626 104.522 94.3086 104.45 94.741H93.9518L93.9375 94.7287ZM101.672 92.727C101.271 90.886 99.7668 89.9222 97.9049 89.9222C95.7994 89.9222 94.3242 90.9972 93.9232 92.727H101.672Z" fill="#103559"/>
<path d="M112.697 89.7538H109.581V95.69C109.581 97.2748 110.633 97.2479 112.697 97.1539V99.5579C108.542 100.055 106.86 98.9401 106.86 95.7034V89.7673H104.55V87.1886H106.86V84.516L109.581 83.7236V87.1886H112.697V89.7673V89.7538Z" fill="#103559"/>
<path d="M119.395 92.6209C121.231 93.0043 123.611 93.7341 123.559 96.1707C123.559 97.2591 123.106 98.1249 122.227 98.7434C121.348 99.3618 120.249 99.671 118.917 99.671C116.564 99.671 114.818 98.6692 114.055 97.0118L116.266 95.7873C116.667 96.8757 117.546 97.4323 118.904 97.4323C120.262 97.4323 120.934 96.9994 120.934 96.1583C120.934 95.4286 119.938 94.9957 118.671 94.6988C116.887 94.2659 114.482 93.5856 114.534 91.1861C114.534 90.1348 114.934 89.2937 115.775 88.6629C116.602 88.0197 117.663 87.7105 118.891 87.7105C120.869 87.7105 122.46 88.6011 123.3 90.0853L121.128 91.248C120.727 90.3821 119.964 89.9492 118.891 89.9492C117.921 89.9492 117.158 90.3574 117.158 91.1614C117.158 91.9159 118.154 92.2993 119.395 92.6456V92.6209Z" fill="#103559"/>
<path d="M139.853 84.9351C137.714 84.7642 136.674 85.5661 136.674 87.3275V87.5642H139.853V90.0881H136.674V99.671H133.758V90.0881H131.707V87.5642H133.758V87.3275C133.758 84.0149 135.868 82.2009 139.853 82.4112V84.9351Z" fill="#103559"/>
<path d="M143.195 97.9412C141.881 96.7798 141.211 95.3712 141.211 93.6908C141.211 92.0104 141.881 90.6018 143.195 89.4403C144.508 88.2789 146.128 87.7105 148 87.7105C149.872 87.7105 151.492 88.2789 152.805 89.4403C154.118 90.6018 154.789 92.0104 154.789 93.6908C154.789 95.3712 154.118 96.7798 152.805 97.9412C151.492 99.1027 149.9 99.671 148 99.671C146.1 99.671 144.508 99.1027 143.195 97.9412ZM148 97.2863C149.131 97.2863 150.081 96.9404 150.85 96.2608C151.618 95.5812 152.009 94.7163 152.009 93.6908C152.009 92.6652 151.618 91.8003 150.85 91.1207C150.081 90.4412 149.131 90.0952 148 90.0952C146.868 90.0952 145.919 90.4412 145.15 91.1207C144.382 91.8003 143.991 92.6652 143.991 93.6908C143.991 94.7163 144.382 95.5812 145.15 96.2608C145.919 96.9404 146.868 97.2863 148 97.2863Z" fill="#103559"/>
<path d="M158.944 89.8933C159.647 88.4381 160.996 87.7105 162.936 87.7105V90.4549C161.882 90.3783 160.94 90.6209 160.139 91.157C159.338 91.6803 158.944 92.5483 158.944 93.7482V99.671H156.147V87.9148H158.944V89.8933Z" fill="#103559"/>
<path d="M183.303 94.7388C183.303 96.1461 182.821 97.3255 181.845 98.2637C180.869 99.2019 179.685 99.671 178.279 99.671H171.083V82.3947H177.746C179.112 82.3947 180.283 82.8638 181.22 83.7752C182.184 84.6866 182.652 85.8259 182.652 87.1795C182.652 88.6807 182.079 89.8467 180.947 90.7045C182.405 91.4953 183.29 92.9294 183.29 94.7254L183.303 94.7388ZM173.841 85.0619V89.6055H177.746C178.969 89.6055 179.906 88.6136 179.906 87.3404C179.906 86.0671 178.969 85.0753 177.746 85.0753H173.841V85.0619ZM178.279 97.0038C179.555 97.0038 180.557 95.945 180.557 94.5913C180.557 93.2376 179.555 92.1788 178.279 92.1788H173.841V97.0173H178.279V97.0038Z" fill="#103559"/>
<path d="M188.98 94.7287C189.395 96.4585 191.012 97.4099 193.201 97.4099C194.703 97.4099 195.834 96.928 196.606 96.0013L198.953 97.1875C197.665 98.8432 195.733 99.671 193.187 99.671C191.055 99.671 189.309 99.1027 187.993 97.9906C186.677 96.8539 186.019 95.4206 186.019 93.6908C186.019 91.9609 186.677 90.5771 187.964 89.4403C189.252 88.2789 190.94 87.7105 192.972 87.7105C194.889 87.7105 196.477 88.3036 197.722 89.465C198.967 90.6265 199.597 92.0598 199.597 93.7155C199.597 93.9626 199.568 94.3086 199.496 94.741H189.009L188.98 94.7287ZM196.706 92.727C196.306 90.886 194.803 89.9222 192.943 89.9222C190.84 89.9222 189.367 90.9972 188.966 92.727H196.721H196.706Z" fill="#103559"/>
<path d="M204.936 92.6209C206.772 93.0043 209.152 93.7341 209.1 96.1707C209.1 97.2591 208.647 98.1249 207.768 98.7434C206.889 99.3618 205.79 99.671 204.458 99.671C202.105 99.671 200.359 98.6692 199.596 97.0118L201.807 95.7873C202.208 96.8757 203.087 97.4323 204.445 97.4323C205.803 97.4323 206.475 96.9994 206.475 96.1583C206.475 95.4286 205.479 94.9957 204.212 94.6988C202.428 94.2659 200.023 93.5856 200.075 91.1861C200.075 90.1348 200.475 89.2937 201.316 88.6629C202.143 88.0197 203.204 87.7105 204.432 87.7105C206.41 87.7105 208.001 88.6011 208.841 90.0853L206.669 91.248C206.268 90.3821 205.505 89.9492 204.432 89.9492C203.462 89.9492 202.699 90.3574 202.699 91.1614C202.699 91.9159 203.695 92.2993 204.936 92.6456V92.6209Z" fill="#103559"/>
<path d="M218.606 89.7538H215.494V95.69C215.494 97.2748 216.545 97.2479 218.606 97.1539V99.5579C214.457 100.055 212.779 98.9401 212.779 95.7034V89.7673H210.459V87.1886H212.779V84.516L215.494 83.7236V87.1886H218.606V89.7673V89.7538Z" fill="#103559"/>
<path d="M64.3184 8.11675C63.9631 4.67958 62.5553 3.98682 59.8219 3.98682H48.1773C45.6216 3.98682 45.0065 4.41313 44.0362 7.17086L35.3027 35.0279L26.5694 7.17086C25.599 4.41313 24.9839 3.98682 22.4282 3.98682H10.77C8.0365 3.98682 6.62877 4.67958 6.27342 8.11675L0.0958072 62.8051C-0.163871 64.7768 0.0138035 65.5628 1.77688 65.816L15.1025 67.7077C17.1253 67.9609 17.5763 67.5345 17.836 66.0691L20.7471 40.4502L27.0067 64.4437C27.6217 66.4155 28.4144 67.2015 30.4509 67.2015H40.1546C42.1774 67.2015 42.9838 66.4288 43.5988 64.4437L49.7764 40.4502L52.7696 66.0691C53.0292 67.5345 53.4802 67.9609 55.503 67.7077L68.8286 65.816C70.5917 65.5628 70.7694 64.7901 70.5097 62.8051L64.3184 8.11675Z" fill="#103559"/>
<path d="M96.4039 18.6053C81.449 18.6053 73.3213 28.6608 73.3213 42.5263C73.3213 56.3919 81.449 66.4474 96.4039 66.4474C111.359 66.4474 119.486 56.3919 119.486 42.5263C119.486 28.6608 111.359 18.6053 96.4039 18.6053ZM96.4039 50.8012C92.8141 50.8012 90.8906 47.5017 90.8906 42.5132C90.8906 37.5248 92.8141 34.2253 96.4039 34.2253C99.9936 34.2253 101.917 37.5248 101.917 42.5132C101.917 47.5017 99.9936 50.8012 96.4039 50.8012Z" fill="#103559"/>
<path d="M153.024 18.6318C149.958 18.6318 127.02 19.2294 125.528 21.2875C124.917 21.978 124.917 22.9208 124.917 24.5407L125.623 61.9062C125.704 65.332 126.505 66.4474 129.557 66.4474H140.246C143.311 66.4474 144.18 65.332 144.18 61.9062V36.1062C145.495 35.6813 145.929 35.5087 147.422 35.4158C149.429 35.3361 150.392 35.9336 151.016 37.5536C151.45 39.2665 151.545 41.8425 151.545 45.348L151.464 61.8929C151.464 65.3187 152.427 66.4341 155.493 66.4341H166.44C169.505 66.4341 170.292 65.3187 170.373 61.8929L171.079 39.0939C171.16 33.5169 169.939 28.3782 167.05 24.6071C163.984 20.8361 159.427 18.6053 153.037 18.6053L153.024 18.6318Z" fill="#103559"/>
<path d="M194.109 23.9211H183.106C180.095 23.9211 179.229 24.9396 179.229 28.3655V61.9236C179.229 65.3363 180.095 66.4474 183.106 66.4474H194.282C197.293 66.4474 198.239 65.3363 198.239 61.9236L198.066 28.3655C198.066 25.0322 197.12 23.9211 194.109 23.9211Z" fill="#103559"/>
<path d="M189.413 1.32892C182.896 1.32892 179.229 5.26565 179.229 10.6315C179.229 15.9975 182.896 19.9342 189.413 19.9342C195.93 19.9342 199.596 15.9975 199.596 10.6315C199.596 5.26565 195.93 1.32892 189.413 1.32892Z" fill="#103559"/>
<path d="M236.664 19.9972H229.895V8.44372C229.895 5.02146 228.999 3.98682 225.898 3.98682H215.394C212.278 3.98682 211.3 5.10104 211.3 8.44372V19.9972H205.965C203.029 19.9972 202.312 20.5145 202.312 23.1674V32.5057C202.312 35.1586 203.029 35.676 205.965 35.676H211.3V51.9384C211.3 62.8949 217.255 67.7763 228.475 67.7763C231.77 67.7763 235.065 67.5243 238.18 66.9141C239.517 66.6621 239.875 66.3172 239.875 65.0305L239.434 51.9251C239.434 50.8109 238.814 50.3864 237.656 50.6384C236.677 50.8905 235.699 51.0629 234.362 51.0629C231.784 51.0629 229.909 50.2007 229.909 46.5264V35.6494H236.677C239.614 35.6494 240.33 35.1321 240.33 32.4792V23.1409C240.33 20.488 239.614 19.9707 236.677 19.9707L236.664 19.9972Z" fill="#103559"/>
<path d="M266.128 18.6053C251.174 18.6053 243.046 28.6608 243.046 42.5263C243.046 56.3919 251.174 66.4474 266.128 66.4474C281.083 66.4474 289.211 56.3919 289.211 42.5263C289.211 28.6608 281.083 18.6053 266.128 18.6053ZM266.128 50.8012C262.539 50.8012 260.615 47.5017 260.615 42.5132C260.615 37.5248 262.539 34.2253 266.128 34.2253C269.718 34.2253 271.642 37.5248 271.642 42.5132C271.642 47.5017 269.718 50.8012 266.128 50.8012Z" fill="#103559"/>
<path d="M293.504 20.4789C291.935 19.3685 289.365 20.0101 287.742 21.91C286.119 23.81 286.079 26.2528 287.634 27.3632C289.203 28.4736 291.773 27.832 293.396 25.9321C295.019 24.0321 295.059 21.5893 293.504 20.4789Z" fill="#103559"/>
<path d="M256.581 17.2487C258.425 16.9709 259.633 14.6822 259.277 12.1289C258.921 9.5756 257.153 7.72346 255.309 8.00128C253.465 8.2791 252.256 10.5678 252.613 13.1211C252.969 15.6744 254.737 17.5266 256.581 17.2487Z" fill="#103559"/>
<path d="M280.477 19.5963C283.028 20.8598 286.89 18.4702 289.089 14.254C291.288 10.0378 291.006 5.58816 288.441 4.32468C285.889 3.0612 282.027 5.45083 279.828 9.66701C277.629 13.8832 277.911 18.3328 280.477 19.5963Z" fill="#103559"/>
<path d="M267.267 15.9258C269.839 16.2468 272.334 12.9429 272.83 8.55555C273.327 4.15479 271.646 0.342577 269.062 0.0215489C266.491 -0.299479 263.996 3.00444 263.5 7.39182C263.003 11.7926 264.683 15.6048 267.267 15.9258Z" fill="#103559"/>
</svg>
